Coordinates
nRows=31
nColumns=12

# SIMM Motion File Header:
name Coordinates
datacolumns 12
datarows 31
otherdata 1
range 0.10000000000000001000 0.13000000000000000000
endheader
time	pelvis_tilt	hip_angle_r	knee_angle_r	tib_tx_r	tib_ty_r	pat_angle_r	pat_tx_r	pat_ty_r	ankle_angle_r	subtalar_angle_r	mtp_angle_r
      0.10000000000000001000	      0.00000000000001233315	     14.26145076310504000000	    -68.16281413904079000000	      0.00513844423896364300	     -0.47853811443651956000	     17.50771381639066200000	      0.04032315975827553700	     -0.02264565169162123200	      1.54035930686334540000	     -0.00000000000000048459	      0.00000000000001271274
      0.10100000000000001000	      0.00000000000001255979	     14.38034755427308700000	    -68.14113600351511500000	      0.00513816656643567480	     -0.47853108592923899000	     17.50754535554243700000	      0.04032997928153836400	     -0.02264628735865272300	      1.59433337288656630000	     -0.00000000000000049515	      0.00000000000001291167
      0.10200000000000001000	      0.00000000000001279559	     14.49869275114002100000	    -68.11661930707391800000	      0.00513784720578869950	     -0.47852313864660528000	     17.50735390768245000000	      0.04033768977653762900	     -0.02264700763263951000	      1.64733392151814200000	     -0.00000000000000050774	      0.00000000000001312130
      0.10300000000000001000	      0.00000000000001304055	     14.61648635370584500000	    -68.08926404971717300000	      0.00513748615702271700	     -0.47851427258861856000	     17.50713947281070300000	      0.04034629124327333800	     -0.02264781251358159000	      1.69936095275807310000	     -0.00000000000000052233	      0.00000000000001334163
      0.10400000000000001000	      0.00000000000001328551	     14.73427995627166700000	    -68.06190879236042700000	      0.00513712510825673450	     -0.47850540653063184000	     17.50692503793895600000	      0.04035489271000904100	     -0.02264861739452367000	      1.75138798399800400000	     -0.00000000000000053693	      0.00000000000001356195
      0.10500000000000000000	      0.00000000000001354123	     14.85089384925458900000	    -68.02860927495716200000	      0.00513666881135334780	     -0.47849461877501254000	     17.50666106430958300000	      0.04036535701998268700	     -0.02264960146425839700	      1.80082370222622100000	     -0.00000000000000055387	      0.00000000000001375339
      0.10600000000000000000	      0.00000000000001379695	     14.96750774223751400000	    -67.99530975755389800000	      0.00513621251444996200	     -0.47848383101939324000	     17.50639709068020600000	      0.04037582132995633200	     -0.02265058553399312500	      1.85025942045443870000	     -0.00000000000000057081	      0.00000000000001394483
      0.10700000000000000000	      0.00000000000001404851	     15.08352376694831100000	    -67.95905788872040900000	      0.00513570394535875500	     -0.47847209026553239000	     17.50610762809244700000	      0.04038720902621226900	     -0.02265165984043262400	      1.89815888659656240000	     -0.00000000000000057759	      0.00000000000001410893
      0.10800000000000000000	      0.00000000000001429590	     15.19894192338697900000	    -67.91985366845671000000	      0.00513514310407972750	     -0.47845939651342995000	     17.50579267654629900000	      0.04039952010875050300	     -0.02265282438357689100	      1.94452210065259190000	     -0.00000000000000057420	      0.00000000000001424568
      0.10900000000000000000	      0.00000000000001454329	     15.31436007982564700000	    -67.88064944819301200000	      0.00513458226280070000	     -0.47844670276132750000	     17.50547772500015100000	      0.04041183119128873700	     -0.02265398892672115800	      1.99088531470862140000	     -0.00000000000000057082	      0.00000000000001438244
      0.11000000000000000000	      0.00000000000001477326	     15.42862664361945600000	    -67.83588178855966100000	      0.00513391224239190340	     -0.47843221632139821000	     17.50511281710584300000	      0.04042587837578005100	     -0.02265532612916920300	      2.03412615569067420000	     -0.00000000000000054951	      0.00000000000001446228
      0.11100000000000000000	      0.00000000000001500323	     15.54289320741326300000	    -67.79111412892629600000	      0.00513324222198310780	     -0.47841772988146891000	     17.50474790921153100000	      0.04043992556027136600	     -0.02265666333161724500	      2.07736699667272710000	     -0.00000000000000052820	      0.00000000000001454212
      0.11200000000000000000	      0.00000000000001523343	     15.65628266346414100000	    -67.74221207016543600000	      0.00513248192375576670	     -0.47840191394601062000	     17.50434420598725500000	      0.04045525955065300300	     -0.02265813103729446100	      2.11835189958026020000	     -0.00000000000000049478	      0.00000000000001459245
      0.11300000000000000000	      0.00000000000001546372	     15.76937975026737400000	    -67.69193187836208400000	      0.00513169153292224440	     -0.47838565484537598000	     17.50392757098632000000	      0.04047102247633140700	     -0.02265964224404806400	      2.15858482312962030000	     -0.00000000000000045731	      0.00000000000001463295
      0.11400000000000000000	      0.00000000000001569585	     15.88216355545942800000	    -67.64021368463600900000	      0.00513086615334720430	     -0.47836893440294986000	     17.50349677631921700000	      0.04048723166011394100	     -0.02266119968174868500	      2.19814992568361010000	     -0.00000000000000041883	      0.00000000000001467935
      0.11500000000000000000	      0.00000000000001593351	     15.99400751581794500000	    -67.58418148514182600000	      0.00512993580754760900	     -0.47835082993514905000	     17.50302350265359800000	      0.04050477961820885000	     -0.02266289581229037600	      2.23571156525149070000	     -0.00000000000000037728	      0.00000000000001474346
      0.11600000000000001000	      0.00000000000001617118	     16.10585147617646100000	    -67.52814928564764300000	      0.00512900546174801380	     -0.47833272546734829000	     17.50255022898797800000	      0.04052232757630375900	     -0.02266459194283206400	      2.27327320481937090000	     -0.00000000000000033574	      0.00000000000001480758
      0.11700000000000001000	      0.00000000000001641146	     16.21673689601204400000	    -67.46784255371036900000	      0.00512795880104719750	     -0.47831325335941327000	     17.50203254124462800000	      0.04054119758690186100	     -0.02266642829812286600	      2.30934482116963440000	     -0.00000000000000030731	      0.00000000000001489547
      0.11800000000000001000	      0.00000000000001665262	     16.32730280233998600000	    -67.40611097762541700000	      0.00512687336871264080	     -0.47829332537143354000	     17.50150004880869800000	      0.04056050828166769100	     -0.02266831139499670500	      2.34491976311402530000	     -0.00000000000000028326	      0.00000000000001499128
      0.11900000000000001000	      0.00000000000001689453	     16.43755974317354800000	    -67.34303759461664600000	      0.00512574730651879900	     -0.47827296932830171000	     17.50095282268248200000	      0.04058023249140137200	     -0.02267023941680932500	      2.38015931922951560000	     -0.00000000000000026227	      0.00000000000001508324
      0.12000000000000000000	      0.00000000000001713873	     16.54688978752399100000	    -67.27593879083646300000	      0.00512449935474710430	     -0.47825132911971363000	     17.50036139548539500000	      0.04060119724603858400	     -0.02267230221343827200	      2.41439271785830380000	     -0.00000000000000025049	      0.00000000000001516365
      0.12100000000000000000	      0.00000000000001738292	     16.65621983187443100000	    -67.20883998705628000000	      0.00512325140297540970	     -0.47822968891112555000	     17.49976996828831200000	      0.04062216200067580300	     -0.02267436501006722300	      2.44862611648709280000	     -0.00000000000000023870	      0.00000000000001524405
      0.12200000000000000000	      0.00000000000001762949	     16.76429676586261800000	    -67.13641225250292200000	      0.00512182433252088110	     -0.47820635417879631000	     17.49911654306282200000	      0.04064476264333614200	     -0.02267660999566341000	      2.48179446775421560000	     -0.00000000000000022290	      0.00000000000001534355
      0.12300000000000000000	      0.00000000000001787607	     16.87237369985080400000	    -67.06398451794956400000	      0.00512039726206635260	     -0.47818301944646707000	     17.49846311783733200000	      0.04066736328599647500	     -0.02267885498125959300	      2.51496281902133890000	     -0.00000000000000020710	      0.00000000000001544305
      0.12400000000000000000	      0.00000000000001812094	     16.97978605494460100000	    -66.98876264156308500000	      0.00511886632490598380	     -0.47815879932291372000	     17.49777519036927500000	      0.04069081813969560600	     -0.02268119751939867400	      2.54751576310957130000	     -0.00000000000000019620	      0.00000000000001556045
      0.12500000000000000000	      0.00000000000001836411	     17.08653383114401000000	    -66.91074662334347100000	      0.00511723152103977630	     -0.47813369380813614000	     17.49705276065865100000	      0.04071512720443353600	     -0.02268363761008065200	      2.57945330001891330000	     -0.00000000000000019020	      0.00000000000001569576
      0.12600000000000000000	      0.00000000000001860728	     17.19328160734341900000	    -66.83273060512385700000	      0.00511559671717356800	     -0.47810858829335862000	     17.49633033094802300000	      0.04073943626917146000	     -0.02268607770076263100	      2.61139083692825520000	     -0.00000000000000018420	      0.00000000000001583106
      0.12700000000000000000	      0.00000000000001886027	     17.29869551792612000000	    -66.74914380410130800000	      0.00511373281511286370	     -0.47808172449900593000	     17.49553459925511600000	      0.04076544063166348500	     -0.02268871656052476000	      2.64176145651689880000	     -0.00000000000000017773	      0.00000000000001597272
      0.12800000000000000000	      0.00000000000001911327	     17.40410942850882100000	    -66.66555700307874600000	      0.00511186891305215940	     -0.47805486070465325000	     17.49473886756220900000	      0.04079144499415551800	     -0.02269135542028689200	      2.67213207610554230000	     -0.00000000000000017127	      0.00000000000001611438
      0.12900000000000000000	      0.00000000000001936328	     17.50885492482977300000	    -66.57919689644469900000	      0.00510987913182579630	     -0.47802712537115272000	     17.49390416166567500000	      0.04081828918724057800	     -0.02269409541193234700	      2.70156538200907100000	     -0.00000000000000016319	      0.00000000000001626424
      0.13000000000000000000	      0.00000000000001961032	     17.61293200688897900000	    -66.49006348419914000000	      0.00510776347143377260	     -0.47799851849850428000	     17.49303048156551600000	      0.04084597321091867900	     -0.02269693653546112400	      2.73006137422748550000	     -0.00000000000000015348	      0.00000000000001642232
